<?xml version="1.0" standalone="no"?>
<!DOCTYPE svg PUBLIC "-//W3C//DTD SVG 1.0//EN" "http://www.w3.org/TR/2001/REC-SVG-20010904/DTD/svg10.dtd">
<svg xmlns="http://www.w3.org/2000/svg" xmlns:xlink="http://www.w3.org/1999/xlink" id="body_1" width="32" height="24">

<g transform="matrix(0.03125 0 0 0.03125 0.125 -0)">
    <path d="M24 12.073C 24 5.446 18.626999 0.072999954 12 0.072999954C 5.373001 0.072999954 0 5.446 0 12.073C 0 18.063 4.388 23.027 10.125 23.927L10.125 23.927L10.125 15.542L7.078 15.542L7.078 12.072L10.125 12.072L10.125 9.43C 10.125 6.4230003 11.917 4.761 14.658 4.761C 15.97 4.761 17.344 4.9960003 17.344 4.9960003L17.344 4.9960003L17.344 7.9490004L15.83 7.9490004C 14.339 7.9490004 13.874 8.874001 13.874 9.823L13.874 9.823L13.874 12.073L17.202 12.073L16.67 15.543L13.874001 15.543L13.874001 23.928001C 19.612 23.027 24 18.062 24 12.073z" stroke="none" fill="#000000" fill-rule="nonzero" />
</g>
</svg>